<svg xmlns="http://www.w3.org/2000/svg" viewBox="0 0 512 512" width="35.93" height="32" xml:space="preserve"><path style="fill:#ff0f4d" d="M356.7 85.27h-65.843l-20.898 194.654 20.898 181.968H356.7z"/><path style="fill:#ff4f67" d="m225.014 85.27-20.898 194.654 20.898 181.968h65.843V85.27z"/><path style="fill:#003da8" d="M102.68 92.482H51.34L30.442 277.188 51.34 461.892h51.34l20.898-184.704z"/><path style="fill:#2f91ed" d="M0 92.482h51.336v369.413H0z"/><path style="fill:#d5681e" d="M225.014 50.104h-61.168L142.948 258.09l20.898 203.802h61.168V222.901l-10.449-15.666 10.449-15.678z"/><path style="fill:#f93" d="M102.68 50.104v141.453l10.449 15.678-10.449 15.666v238.991h61.166V50.104z"/><path style="fill:#983300" d="M140.131 90.549h47.428v31.347h-47.428zm0 44.889h47.428v31.347h-47.428z"/><path style="fill:#630" d="M225.014 191.555h-61.168l-20.898 15.674 20.898 15.673h61.168z"/><path style="fill:#983300" d="M102.682 191.56h61.168v31.347h-61.168z"/><path style="fill:#ffba00" d="M67.013 139.902H51.34L40.891 273.581 51.34 414.474h15.673z"/><path style="fill:#fde09c" d="M35.662 139.9h15.673v274.568H35.662z"/><path style="fill:#ffba00" d="M324.771 345.688h-33.914l-20.898 15.674 20.898 15.673h33.914zm0 44.894h-33.914l-20.898 15.674 20.898 15.673h33.914z"/><path style="fill:#fde09c" d="M256.94 345.692h33.915v31.347H256.94zm0 44.889h33.915v31.347H256.94z"/><path style="fill:#ff8e00" d="m447.144 114.286-38.807 7.719-12.422 17.897 11.273 157.681 47.64 138.494 18.363 11.981 38.809-7.72z"/><path style="fill:#ffba00" d="m338.783 135.84 64.856 326.052 38.808-7.719 12.381-18.096-58.913-296.175-18.324-11.781z"/><path transform="rotate(-101.251 425.388 288.087)" style="fill:#fde09c" d="M259.164 272.418h332.45v31.347h-332.45z"/></svg>